<?xml version="1.0" encoding="UTF-8"?> <svg xmlns="http://www.w3.org/2000/svg" width="143" height="40" viewBox="0 0 143 40" fill="none"><g clip-path="url(#clip0_1207_24)"><g clip-path="url(#clip1_1207_24)"><g clip-path="url(#clip2_1207_24)"><path d="M48.7295 29.0141C48.3987 29.0141 48.1573 28.9391 48.0054 28.7896C47.8532 28.64 47.7773 28.4022 47.7773 28.0766V13.5123C47.7773 13.1866 47.8532 12.9533 48.0054 12.8125C48.1573 12.6628 48.3987 12.588 48.7295 12.588H54.0668C55.7029 12.588 57.0888 12.9049 58.224 13.5387C59.3683 14.1637 60.2312 15.088 60.8123 16.3116C61.4025 17.5352 61.6974 19.0273 61.6974 20.7878C61.6974 22.5572 61.4025 24.0537 60.8123 25.2773C60.2312 26.5009 59.3683 27.4296 58.224 28.0634C57.0888 28.6972 55.7029 29.0141 54.0668 29.0141H48.7295ZM54.0668 25.9375C55.3365 25.9375 56.2974 25.5017 56.95 24.6303C57.6029 23.75 57.929 22.4692 57.929 20.7878C57.929 19.1153 57.6029 17.8433 56.95 16.9718C56.2974 16.0915 55.3365 15.6514 54.0668 15.6514H51.4785V25.9375H54.0668ZM67.2359 29.2121C66.02 29.2121 65.1259 28.8997 64.5538 28.2746C63.9907 27.6408 63.7089 26.8045 63.7089 25.7658C63.7089 24.9824 63.8743 24.2781 64.2053 23.6532C64.536 23.0194 65.2066 22.4868 66.2168 22.0554C67.227 21.6241 68.6709 21.4084 70.5485 21.4084V20.6294C70.5485 20.1716 70.4009 19.8327 70.1059 19.6127C69.8107 19.3926 69.3415 19.2825 68.6978 19.2825C68.1614 19.2825 67.7008 19.3398 67.3165 19.4542C66.932 19.5598 66.5163 19.7051 66.0692 19.8899C65.8369 19.9956 65.6938 20.0484 65.64 20.0484C65.4793 20.0484 65.3005 19.9296 65.1036 19.6919C64.9159 19.4542 64.7506 19.1813 64.6075 18.8732C64.4645 18.5651 64.393 18.3318 64.393 18.1734C64.393 17.9005 64.5895 17.6408 64.9829 17.3943C65.3854 17.1391 65.935 16.9366 66.6325 16.787C67.33 16.6285 68.1033 16.5493 68.9524 16.5493C70.7405 16.5493 72.0413 16.9014 72.855 17.6056C73.6686 18.301 74.0755 19.2561 74.0755 20.4709V24.8679C74.0755 25.5986 74.0932 26.1663 74.129 26.5713C74.1736 26.9762 74.2317 27.3767 74.3032 27.7729C74.3481 28.0105 74.3704 28.1777 74.3704 28.2746C74.3704 28.4507 74.2005 28.596 73.8609 28.7104C73.5299 28.8248 73.1499 28.9084 72.7208 28.9611C72.2917 29.0141 71.9475 29.0405 71.6883 29.0405C71.4111 29.0405 71.21 28.9262 71.0847 28.6972C70.9685 28.4594 70.8747 28.1382 70.8031 27.7332C70.7943 27.6804 70.7854 27.6276 70.7762 27.5748C70.7674 27.522 70.7539 27.4692 70.7362 27.4163C70.6466 27.5836 70.4544 27.8081 70.1594 28.0898C69.8733 28.3715 69.48 28.6312 68.9793 28.8687C68.4786 29.0977 67.8976 29.2121 67.2359 29.2121ZM68.4028 26.4524C68.8497 26.4524 69.27 26.316 69.6633 26.0431C70.0567 25.7614 70.3517 25.4049 70.5485 24.9736V23.6796C68.3222 23.6796 67.2093 24.2561 67.2093 25.4093C67.2093 25.7174 67.312 25.9683 67.5177 26.162C67.7322 26.3556 68.0272 26.4524 68.4028 26.4524ZM81.9607 33.9921C78.1789 33.9921 76.2881 32.9093 76.2881 30.7439C76.2881 30.1363 76.4715 29.5994 76.8379 29.1329C77.2133 28.6665 77.7543 28.2966 78.4607 28.0238L78.4741 27.9313C78.1523 27.7641 77.9019 27.5264 77.7231 27.2183C77.5443 26.9102 77.4548 26.5625 77.4548 26.1752C77.4548 25.779 77.5755 25.4137 77.817 25.0792C78.0673 24.7447 78.4249 24.4586 78.8898 24.2209C78.2819 23.8864 77.8035 23.4287 77.4548 22.8477C77.1152 22.2667 76.9452 21.5581 76.9452 20.7218C76.9452 19.2958 77.4147 18.2438 78.3534 17.566C79.3009 16.8882 80.5437 16.5493 82.0814 16.5493C82.7251 16.5493 83.3377 16.6109 83.9187 16.7341H87.7541C88.0044 16.7341 88.1878 16.831 88.3039 17.0246C88.4201 17.2095 88.4782 17.5044 88.4782 17.9093V18.3054C88.4782 19.0449 88.2862 19.4146 87.9017 19.4146C87.7675 19.4146 87.5841 19.4058 87.3518 19.3882C87.1284 19.3706 86.9673 19.3486 86.8689 19.3222L86.8288 19.4146C86.9361 19.5554 87.0254 19.7535 87.0969 20.0088C87.1684 20.2552 87.2042 20.4929 87.2042 20.7218C87.2042 22.1214 86.7573 23.1646 85.8633 23.8512C84.9692 24.529 83.798 24.8679 82.3498 24.8679C81.3751 24.8679 80.8879 25.0836 80.8879 25.5149C80.8879 25.7086 80.9863 25.8627 81.1828 25.9771C81.3797 26.0827 81.63 26.1663 81.9338 26.228C82.2468 26.2896 82.6894 26.3556 83.2616 26.426C83.6727 26.4701 84.0572 26.5229 84.4148 26.5845C85.5414 26.8045 86.4398 27.1655 87.1104 27.6672C87.781 28.1602 88.1162 28.9391 88.1162 30.0045C88.1162 30.8053 87.8613 31.5053 87.3518 32.1039C86.8423 32.7025 86.1225 33.1645 85.1927 33.4904C84.2629 33.8248 83.1855 33.9921 81.9607 33.9921ZM82.0814 22.3723C82.609 22.3723 83.0381 22.2359 83.3689 21.963C83.7087 21.6901 83.8784 21.2764 83.8784 20.7218C83.8784 20.1672 83.7087 19.7535 83.3689 19.4806C83.0381 19.1989 82.609 19.0581 82.0814 19.0581C81.5539 19.0581 81.1205 19.1989 80.7806 19.4806C80.4499 19.7535 80.2845 20.1672 80.2845 20.7218C80.2845 21.2764 80.4499 21.6901 80.7806 21.963C81.1205 22.2359 81.5539 22.3723 82.0814 22.3723ZM82.2291 31.2456C83.0335 31.2456 83.6415 31.1442 84.0529 30.9419C84.4729 30.7394 84.6832 30.4577 84.6832 30.0969C84.6832 29.8504 84.5624 29.6524 84.321 29.5025C84.0887 29.3617 83.7087 29.2428 83.1812 29.1462C82.6625 29.058 81.9338 28.9834 80.9951 28.9217C80.5929 29.0625 80.2799 29.2473 80.0565 29.4763C79.833 29.705 79.7212 29.9428 79.7212 30.1893C79.7212 30.5236 79.9269 30.7834 80.338 30.9684C80.7494 31.1532 81.3797 31.2456 82.2291 31.2456ZM93.4401 29.2121C92.8233 29.2121 92.2108 29.1462 91.6029 29.0141C90.9949 28.882 90.49 28.6927 90.0874 28.4462C89.694 28.1997 89.4975 27.9181 89.4975 27.6012C89.4975 27.4076 89.569 27.1655 89.7121 26.875C89.8551 26.5845 90.0251 26.3336 90.2216 26.1223C90.4273 25.9023 90.6061 25.7922 90.758 25.7922C90.8384 25.7922 91.0129 25.8538 91.281 25.9771C91.594 26.118 91.8935 26.2324 92.1796 26.3204C92.4657 26.4084 92.7921 26.4524 93.1586 26.4524C93.6144 26.4524 93.9588 26.3688 94.1911 26.2016C94.4237 26.0343 94.5399 25.7878 94.5399 25.4621C94.5399 25.2156 94.4683 25.0132 94.3253 24.8547C94.1911 24.6875 94.0169 24.551 93.8023 24.4454C93.5877 24.3398 93.2836 24.2121 92.8903 24.0625L92.5015 23.9172C91.9919 23.7236 91.5448 23.5035 91.1603 23.257C90.776 23.0105 90.4496 22.654 90.1813 22.1875C89.9132 21.7121 89.779 21.1135 89.779 20.3917C89.779 19.5907 89.9535 18.904 90.302 18.3318C90.6596 17.7509 91.1648 17.3107 91.8174 17.0114C92.47 16.7033 93.239 16.5493 94.1242 16.5493C94.6337 16.5493 95.1655 16.5977 95.72 16.6945C96.2742 16.7914 96.7391 16.941 97.1147 17.1435C97.4992 17.3459 97.6912 17.6012 97.6912 17.9093C97.6912 18.0854 97.6331 18.323 97.5169 18.6223C97.4096 18.9216 97.2755 19.1857 97.1147 19.4146C96.9536 19.6435 96.8017 19.7579 96.6587 19.7579C96.614 19.7579 96.4887 19.7183 96.2833 19.6391C96.0061 19.5246 95.7377 19.4366 95.4785 19.375C95.2282 19.3045 94.9378 19.2693 94.6068 19.2693C93.7666 19.2693 93.3463 19.5422 93.3463 20.088C93.3463 20.3345 93.4224 20.5458 93.5743 20.7218C93.7351 20.8979 93.9319 21.0431 94.1642 21.1576C94.3968 21.272 94.7233 21.4084 95.1432 21.5669C95.6262 21.7605 95.9257 21.8838 96.0418 21.9366C96.6675 22.2447 97.1682 22.654 97.5438 23.1646C97.9283 23.6663 98.1203 24.3398 98.1203 25.1848C98.1203 25.9859 97.9372 26.6901 97.5707 27.2975C97.2039 27.9049 96.6675 28.3758 95.9615 28.7104C95.2551 29.0448 94.4146 29.2121 93.4401 29.2121ZM102.023 29.0538C101.075 29.0538 100.601 28.8073 100.601 28.3143V13.2878C100.601 13.0325 100.713 12.8433 100.937 12.72C101.169 12.588 101.531 12.522 102.023 12.522H102.868C103.359 12.522 103.717 12.588 103.941 12.72C104.173 12.8433 104.289 13.0325 104.289 13.2878V19.0845H110.726V13.2878C110.726 13.0325 110.843 12.8433 111.075 12.72C111.307 12.588 111.67 12.522 112.161 12.522H112.993C113.949 12.522 114.428 12.7773 114.428 13.2878V28.3143C114.428 28.8073 113.949 29.0538 112.993 29.0538H112.161C111.205 29.0538 110.726 28.8073 110.726 28.3143V22.1875H104.289V28.3143C104.289 28.8073 103.816 29.0538 102.868 29.0538H102.023ZM120.999 29.2121C119.801 29.2121 118.916 28.9039 118.344 28.2879C117.771 27.6628 117.485 26.6989 117.485 25.3961V17.4339C117.485 17.1875 117.601 17.0026 117.834 16.8794C118.066 16.7561 118.429 16.6945 118.92 16.6945H119.577C120.069 16.6945 120.431 16.7561 120.663 16.8794C120.896 17.0026 121.012 17.1875 121.012 17.4339V24.8679C121.012 25.3521 121.124 25.7174 121.348 25.9639C121.571 26.2104 121.937 26.3336 122.447 26.3336C122.885 26.3336 123.265 26.1972 123.587 25.9243C123.918 25.6426 124.173 25.3257 124.351 24.9736V17.4339C124.351 17.1875 124.468 17.0026 124.7 16.8794C124.933 16.7561 125.295 16.6945 125.786 16.6945H126.443C126.935 16.6945 127.297 16.7561 127.53 16.8794C127.762 17.0026 127.878 17.1875 127.878 17.4339V24.8679C127.878 25.6074 127.896 26.1884 127.932 26.6109C127.977 27.0246 128.03 27.412 128.093 27.7729C128.138 28.0105 128.16 28.1777 128.16 28.2746C128.16 28.4507 127.995 28.596 127.664 28.7104C127.333 28.8248 126.953 28.9084 126.524 28.9611C126.104 29.0141 125.764 29.0405 125.505 29.0405C125.219 29.0405 125.013 28.9304 124.888 28.7104C124.772 28.4814 124.678 28.1602 124.606 27.7465L124.539 27.4163C124.164 27.9181 123.659 28.345 123.024 28.6972C122.398 29.0405 121.723 29.2121 120.999 29.2121ZM137.454 29.2121C136.747 29.2121 136.112 29.0493 135.549 28.7236C134.986 28.389 134.561 27.9621 134.275 27.4428L134.208 27.72C134.128 28.0634 134.065 28.3053 134.021 28.4462C133.958 28.6927 133.819 28.8558 133.605 28.9349C133.39 29.0141 133.073 29.0538 132.653 29.0538H132.371C131.414 29.0538 130.936 28.8073 130.936 28.3143V12.0731C130.936 11.8178 131.052 11.6285 131.285 11.5053C131.517 11.3732 131.879 11.3072 132.371 11.3072H133.028C133.985 11.3072 134.463 11.5625 134.463 12.0731V17.2755C135.134 16.7914 135.943 16.5493 136.89 16.5493C137.945 16.5493 138.848 16.809 139.599 17.3283C140.359 17.8389 140.936 18.5695 141.329 19.5202C141.723 20.4709 141.919 21.5845 141.919 22.8609C141.919 24.1901 141.727 25.3345 141.343 26.294C140.967 27.2447 140.44 27.9709 139.76 28.4727C139.09 28.9656 138.321 29.2121 137.454 29.2121ZM136.421 26.36C137.699 26.36 138.339 25.1936 138.339 22.8609C138.339 20.4753 137.601 19.2825 136.126 19.2825C135.581 19.2825 135.026 19.4322 134.463 19.7315V24.9736C135.008 25.8979 135.661 26.36 136.421 26.36Z" fill="white"></path><path d="M39.0845 6.67048V6.58701C39.0845 6.53234 39.0785 6.45177 39.0685 6.34529C39.0571 6.20884 39.0353 6.07346 39.0033 5.94025C38.9924 5.89853 38.9792 5.85391 38.9624 5.80501C38.9581 5.79205 38.9552 5.78487 38.9472 5.764C38.9389 5.74312 38.9309 5.72586 38.9229 5.70932C38.9054 5.67622 38.8894 5.63738 38.8682 5.60859C38.8273 5.53887 38.7724 5.47819 38.7066 5.43042C38.6408 5.38262 38.5658 5.34873 38.486 5.3309C38.4411 5.32124 38.3953 5.31594 38.3493 5.31507L38.2448 5.30788L38.0657 5.31436C38.0054 5.32155 37.943 5.33163 37.8804 5.34098C37.8174 5.35034 37.7568 5.37048 37.6941 5.38845C37.4464 5.46932 37.2143 5.59095 37.0078 5.74817C36.5921 6.05825 36.2488 6.44386 35.8854 6.81867C35.5295 7.20267 35.1442 7.55912 34.7325 7.88487C34.5268 8.04259 34.3108 8.18679 34.0859 8.3165C33.8662 8.44431 33.6371 8.55614 33.4005 8.65104C33.286 8.70141 33.1667 8.73811 33.052 8.78053L32.6692 8.92442L32.4815 8.99636L32.3039 9.07983L31.9591 9.24386C31.8493 9.30214 31.7457 9.364 31.6427 9.42155C31.5397 9.4791 31.4382 9.5345 31.3503 9.5978C31.2628 9.66112 31.1684 9.71867 31.0814 9.77622C31.0385 9.80501 30.9944 9.83234 30.9544 9.86112L30.8374 9.9489C30.7029 10.051 30.583 10.1359 30.4846 10.218L30.2294 10.4338L30.1293 10.5187L30.0469 10.5942L29.9181 10.7136C29.5548 11.0455 29.2387 11.4239 28.9779 11.8388C28.8647 12.0212 28.7627 12.21 28.6724 12.4043C28.6286 12.4985 28.5862 12.5949 28.5453 12.6957C28.4408 12.651 28.3356 12.6064 28.2253 12.5654L27.6912 12.364C26.9112 12.0857 26.1139 11.8572 25.3041 11.6798C23.6524 11.3193 21.9577 11.1878 20.2691 11.2892C20.0776 11.2971 19.8913 11.318 19.7101 11.3309C19.6188 11.3374 19.5296 11.3496 19.442 11.3583L19.1994 11.3849C19.0284 11.4057 18.8691 11.4295 18.7244 11.4489C18.4322 11.4935 18.202 11.5331 18.0471 11.564C17.5637 11.6519 17.0923 11.7954 16.6428 11.9914C16.383 12.1066 16.1322 12.2406 15.8924 12.3921L15.8339 12.4057C15.804 12.2534 15.7655 12.1028 15.7185 11.9546C15.5629 11.4801 15.3213 11.0372 15.0054 10.6475C14.8592 10.4614 14.7013 10.2845 14.5326 10.118C14.4259 10.0101 14.3025 9.8978 14.1673 9.7827L14.0701 9.70214C14.0336 9.67191 13.997 9.64242 13.9561 9.61436C13.8772 9.55752 13.8005 9.49636 13.7165 9.44312C13.6324 9.38989 13.5491 9.3309 13.46 9.28053C13.3709 9.23019 13.2824 9.17552 13.1875 9.12946L13.0472 9.05752C12.999 9.03377 12.95 9.01363 12.9011 8.99135L12.7549 8.92515L12.6022 8.86687L12.448 8.80859L12.2895 8.75896L11.9855 8.66327C11.7912 8.60214 11.591 8.54456 11.401 8.46831C11.3038 8.43234 11.2044 8.39636 11.1087 8.35969L10.8209 8.23521C10.4352 8.06543 10.067 7.85969 9.72117 7.62084C9.37002 7.37265 9.03521 7.10281 8.71871 6.81293C8.39431 6.52515 8.07208 6.22228 7.73744 5.94386C7.40277 5.66543 7.06667 5.40214 6.72765 5.17118C6.40394 4.93805 6.06189 4.7307 5.7047 4.55104C5.53471 4.46566 5.35951 4.3907 5.1801 4.32659C5.00618 4.26501 4.82692 4.21924 4.64454 4.18988C4.46455 4.16107 4.28146 4.15622 4.10019 4.17552C3.77104 4.20969 3.46192 4.34772 3.21899 4.56904C3.16931 4.6158 3.12255 4.66256 3.08163 4.70859C3.04071 4.75465 3.00272 4.79924 2.97276 4.84312C2.8776 4.97394 2.79678 5.11428 2.73164 5.26183L2.68341 5.37408C2.67245 5.39924 2.66807 5.41219 2.66807 5.41219C2.66807 5.41219 2.64761 5.46473 2.61327 5.56327C2.56663 5.7051 2.52736 5.84918 2.49564 5.99493C2.44796 6.21617 2.41235 6.43974 2.38896 6.66473C2.38384 6.72946 2.37581 6.79493 2.37142 6.86543C2.36704 6.93594 2.36558 7.00932 2.36265 7.08631C2.35579 7.24681 2.3597 7.4076 2.37434 7.5676C2.4079 7.92893 2.48643 8.28484 2.60816 8.62732C2.7331 8.98701 2.89166 9.33955 3.04656 9.69924C3.20146 10.059 3.35564 10.428 3.49299 10.8136C3.5573 11.0072 3.62671 11.2021 3.68003 11.4036C3.70781 11.5043 3.73923 11.6043 3.76552 11.7057L3.84079 12.0144C3.89412 12.2194 3.92773 12.4309 3.96864 12.641L3.99863 12.7992C4.00812 12.8518 4.01396 12.9057 4.022 12.9583L4.06729 13.2784L4.11478 13.6072C4.13378 13.7223 4.14473 13.8381 4.17177 13.9518C4.1988 14.0654 4.21563 14.1791 4.24484 14.2906C4.27408 14.4021 4.30331 14.5136 4.33619 14.6237C4.46627 15.0527 4.63549 15.4693 4.8418 15.8683C4.9419 16.0618 5.04638 16.2503 5.15672 16.4295C5.21005 16.5208 5.26779 16.6072 5.32403 16.6935L5.4088 16.8223L5.48845 16.9352C5.68579 17.2167 5.89799 17.4878 6.12411 17.7475C6.31557 17.9705 6.47996 18.1417 6.58956 18.2546C6.93001 18.6078 7.31503 18.9166 7.73524 19.1733C7.86384 19.251 7.99461 19.3215 8.12833 19.3892C8.12676 19.3958 8.12555 19.4026 8.12467 19.4093C7.96783 19.7508 7.83646 20.103 7.73158 20.4633C7.60186 20.9254 7.51815 21.3988 7.48171 21.877C7.46563 22.069 7.43785 22.3805 7.40864 23.028C7.38306 23.5841 7.37502 24.523 7.42472 25.323C7.44735 25.723 7.4795 26.0877 7.50946 26.3525C7.52333 26.4849 7.53795 26.5921 7.54673 26.6662L7.56132 26.782C7.56132 26.782 7.58035 26.9194 7.61248 27.1417C7.64463 27.364 7.69942 27.6798 7.77249 28.0288C7.84556 28.3777 7.94057 28.7625 8.05163 29.1315C8.16269 29.5008 8.28908 29.851 8.40673 30.1445C8.54233 30.4828 8.69774 30.8132 8.87214 31.1338C8.93937 31.2605 9.00514 31.367 9.05775 31.4597L9.20386 31.6879C9.46958 32.1098 9.80548 32.4848 10.1976 32.7972C10.415 32.9656 10.6487 33.1126 10.8954 33.236C10.9421 33.3208 10.9933 33.4042 11.0481 33.4842C11.166 33.6524 11.2991 33.8098 11.4456 33.9546C11.5922 34.0957 11.7498 34.2253 11.9168 34.3425C12.0827 34.4555 12.256 34.5577 12.4356 34.6481C13.1502 35.0028 13.9196 35.1712 14.659 35.2467C15.3785 35.3284 16.1052 35.3284 16.8247 35.2467C17.1647 35.207 17.502 35.1484 17.8352 35.0712C17.9989 35.0374 18.1567 34.9893 18.3138 34.9481C18.4709 34.9073 18.6236 34.856 18.7712 34.8042C19.0576 34.7056 19.3294 34.5949 19.5874 34.4769C19.7472 34.6642 19.9254 34.8355 20.1193 34.9884C20.422 35.22 20.7582 35.4059 21.1167 35.5394C21.1897 35.569 21.2832 35.6028 21.4235 35.6504C21.4922 35.6755 21.5748 35.6986 21.6698 35.7265C21.7647 35.7546 21.8758 35.7834 22.0029 35.8152C22.1023 35.8425 22.2404 35.8648 22.3873 35.8949C22.4603 35.9079 22.5392 35.918 22.616 35.9287L22.7307 35.9453L22.8439 35.956L23.0536 35.9749C23.1187 35.9791 23.1771 35.9791 23.2268 35.9814L23.3868 35.987H23.4234H23.5227C23.6067 35.987 23.7244 35.987 23.8559 35.9769C24.1259 35.9608 24.3944 35.9264 24.6596 35.8741L24.9051 35.8236C24.9826 35.8056 25.0513 35.7834 25.1243 35.7653L25.3194 35.7121L25.4889 35.6546C25.5942 35.6172 25.687 35.5884 25.7637 35.5569L25.9566 35.4769C26.0567 35.4372 26.1542 35.3915 26.2488 35.3403C26.3394 35.2921 26.4249 35.2453 26.506 35.1963C26.6646 35.0972 26.8034 34.9935 26.9357 34.8921C27.0679 34.7907 27.1812 34.6698 27.301 34.5518C27.3521 34.4949 27.4033 34.4366 27.4544 34.3763C27.8678 34.5574 28.2927 34.7115 28.7265 34.838C29.4209 35.0428 30.1367 35.1681 30.86 35.2121C31.6318 35.2653 32.4069 35.1856 33.1507 34.9763C33.5375 34.8631 33.9065 34.6974 34.2467 34.4834C34.5963 34.2631 34.9013 33.9805 35.1462 33.6504C35.2672 33.4834 35.3719 33.3056 35.4589 33.1194C35.5439 32.9341 35.6114 32.7414 35.6606 32.5439C35.7104 32.3501 35.7421 32.1521 35.7556 31.9524C35.7742 31.758 35.7793 31.5622 35.771 31.367C35.7659 31.2684 35.7504 31.1704 35.741 31.0726L35.7235 30.9287L35.6926 30.7848C35.67 30.6898 35.6546 30.5926 35.6262 30.4972C35.5976 30.4014 35.567 30.3121 35.537 30.2203C35.523 30.1741 35.5061 30.1287 35.4858 30.0848L35.4288 29.9524L35.3728 29.8203C35.353 29.7763 35.3287 29.736 35.307 29.6935C35.2623 29.6093 35.2191 29.525 35.1725 29.4431L35.0212 29.2056C34.8186 28.9022 34.5883 28.6177 34.3328 28.3555C34.2679 28.2834 34.1992 28.2166 34.1297 28.151C34.3726 27.9156 34.5869 27.6532 34.7683 27.369C35.0317 26.9524 35.2323 26.5005 35.3639 26.0273C35.5218 25.4763 35.6385 24.9146 35.7132 24.3467C35.7284 24.2187 35.7504 24.0877 35.7607 23.9532C35.771 23.8187 35.7839 23.6805 35.7956 23.5403C35.8088 23.2597 35.8251 22.9683 35.8185 22.6683C35.8148 22.0443 35.7599 21.4217 35.654 20.8064C35.5473 20.2141 35.3908 19.6316 35.1862 19.0647C35.2795 19.0059 35.3693 18.942 35.4552 18.8734C35.6265 18.7347 35.7845 18.5808 35.9272 18.4136C36.2428 18.0351 36.5028 17.6146 36.6997 17.1647C36.8172 16.9057 37.0378 16.4079 37.3279 15.582C37.5983 14.8144 37.8804 13.882 38.1281 12.9101C38.3756 11.9381 38.5919 10.928 38.7506 10.0086C38.9091 9.08918 39.0113 8.26039 39.0536 7.65538C39.0808 7.3278 39.0911 6.99907 39.0845 6.67048Z" stroke="#EAEAEA" stroke-width="2.8169" stroke-miterlimit="10"></path><path d="M15.7508 12.6438C15.7508 12.6438 20.8742 10.1079 28.3848 13.0071C28.3848 13.0071 30.0514 10.0417 33.6003 8.92728C37.149 7.81291 35.1553 6.75032 37.8585 5.63593C40.5621 4.52153 36.3557 16.9582 36.3557 16.9582C36.3557 16.9582 35.2457 18.9424 34.8403 19.2086C34.8403 19.2086 36.3628 24.6043 33.8656 28.3504C33.8656 28.3504 37.1928 31.3833 34.2111 34.1394C32.8316 35.0129 31.176 35.249 29.4932 34.7346L27.6753 34.1588C26.9198 34.6555 26.4164 35.6476 23.6449 35.6476C20.8735 35.6476 19.3633 34.1588 19.3633 34.1588C18.1883 35.0264 15.3329 35.3991 13.0656 34.6555C13.0656 34.6555 10.0429 32.6712 9.52703 31.5619C9.52703 31.5619 6.54444 27.3611 8.16068 19.2064C8.16068 19.2064 5.44407 17.6323 4.47156 13.7561C3.49902 9.87982 2.67192 8.53089 2.67777 7.77838C2.68361 7.02584 3.00072 3.36542 5.22924 4.53232C7.45778 5.69922 8.91619 8.38773 12.53 9.22728C14.8185 9.78413 15.7508 12.6438 15.7508 12.6438Z" fill="#FFFCF0"></path><path d="M21.2353 11.6237C21.2353 11.6237 22.6185 20.3669 20.3154 24.6611C17.9386 25.9561 17.4059 25.7201 14.7587 26.8561C12.1115 27.9921 11.0908 30.338 11.0908 30.338C11.0908 30.338 10.6611 32.8791 10.7985 33C10.9359 33.1208 6.28444 29.4245 8.20171 19.2345C8.20171 19.2345 4.99042 16.9777 4.51551 13.7884C4.04057 10.5993 2.97599 8.56616 2.97599 8.56616C2.97599 8.56616 1.91433 5.22227 4.13775 4.53233C6.36117 3.84241 7.72311 7.91362 11.3713 8.85751C15.0195 9.8014 15.634 12.4546 15.634 12.4546C15.634 12.4546 19.2903 11.5316 21.2353 11.6237Z" fill="#666666"></path><path d="M26.2952 12.3057C26.2952 12.3057 24.7608 18.3287 26.2952 24.6611C26.2952 24.6611 31.9696 26.3309 33.8862 28.369C33.8862 28.369 36.7525 24.5942 34.8594 19.2323C34.8594 19.2323 36.059 18.6359 37.5029 13.8007C38.9468 8.96542 38.9855 6.25032 38.3907 5.68342C37.7959 5.11649 35.49 7.72944 35.49 7.72944C35.49 7.72944 34.6958 8.46181 32.3364 9.46973C29.977 10.4776 28.412 13.0388 28.412 13.0388L26.2952 12.3057Z" fill="#666666"></path><path d="M13.7996 14.2518C13.7996 14.2518 9.81234 6.92946 3.83185 5.87262C3.83185 5.87262 3.21882 6.25034 3.67914 8.66544C4.13946 11.0805 4.36012 13.7201 4.76199 14.7316C5.16386 15.7431 6.66902 18.3287 8.96917 19.7252C8.96917 19.7252 11.1926 16.8942 11.8056 15.7618C12.4186 14.6295 13.7996 14.2518 13.7996 14.2518Z" fill="#A05858"></path><path d="M31.5 14.7316C31.5 14.7316 33.7787 16.328 34.861 19.2345C34.861 19.2345 38.3908 15.3726 38.7049 6.50067C38.7049 6.50067 38.2286 5.46036 36.6459 7.34238C35.0633 9.22438 31.5 14.7316 31.5 14.7316Z" fill="#A05858"></path><path d="M23.7929 29.3524C23.7929 29.3524 26.104 28.8653 26.2962 27.2021C26.2962 27.2021 23.8813 25.0532 21.2363 27.2021C21.2363 27.2014 22.1321 29.3524 23.7929 29.3524Z" fill="#333333"></path><path opacity="0.1" d="M19.4043 34.2445C20.6012 34.1436 21.731 33.6574 22.6192 32.8611C24.071 31.5374 25.2328 34.2338 27.5446 34.1138C27.5446 34.1138 25.3526 33.0346 24.7681 32.287C24.1836 31.5394 23.7452 30.7236 22.6207 31.8425C21.4962 32.9611 20.2665 33.9684 19.4043 34.2445Z" fill="#333333"></path><path opacity="0.5" d="M32.1836 15.1201C32.1836 15.1201 33.4907 13.1057 34.7839 12.3798C34.8574 12.3397 34.9415 12.3221 35.0253 12.3294C35.1092 12.3366 35.1887 12.3684 35.2542 12.4207C35.3194 12.4729 35.3672 12.5431 35.3918 12.6224C35.4161 12.7016 35.4159 12.7863 35.391 12.8654C35.2267 13.4042 35.0528 14.1395 35.0989 14.7316C35.0989 14.7316 35.1469 14.7222 35.2202 14.715C35.3028 14.7075 35.3861 14.7206 35.4625 14.7529C35.5389 14.7853 35.6058 14.8361 35.657 14.9005C35.7082 14.9649 35.7423 15.041 35.756 15.1217C35.7695 15.2024 35.7626 15.2852 35.7351 15.3625C35.5532 15.8733 35.3152 16.9194 35.443 18.7237L34.8774 19.0834C34.8774 19.0834 33.8918 16.5546 32.1836 15.1201Z" fill="#331D1D"></path><path opacity="0.5" d="M12.7871 14.7316C12.7871 14.7316 11.8262 12.5172 9.04607 12.1719C8.95775 12.1618 8.86826 12.1725 8.78495 12.2031C8.70161 12.2336 8.62686 12.2832 8.56675 12.3477C8.50664 12.4122 8.46293 12.4898 8.43918 12.5742C8.41544 12.6586 8.41232 12.7473 8.43011 12.833C8.56017 13.4841 8.72238 14.3985 8.64931 14.7316C8.45068 14.7087 8.25022 14.7053 8.0509 14.7215C7.97019 14.7287 7.8932 14.7584 7.82898 14.8071C7.76472 14.8557 7.71586 14.9213 7.68805 14.9963C7.66024 15.0713 7.65466 15.1524 7.67194 15.2304C7.68922 15.3084 7.72867 15.3799 7.78566 15.4366C8.45057 16.1035 9.62037 17.5553 9.31202 19.2776C9.31202 19.2776 10.8252 17.4604 11.371 16.5165C11.9169 15.5726 12.7871 14.7316 12.7871 14.7316Z" fill="#331D1D"></path><path opacity="0.3" d="M29.2312 11.9172C29.2312 11.9172 31.7571 12.7086 32.1839 13.6115L31.4993 14.7316C31.4993 14.7316 28.7643 12.9201 28.4121 13.0388L29.2312 11.9172Z" fill="#333333"></path><path opacity="0.1" d="M35.2791 30.338C35.1795 31.5172 34.7206 32.3777 34.1032 33.0093C34.1032 33.0129 34.1112 33.0152 34.1144 33.0186C34.2108 33.1453 34.0529 33.4231 33.7613 33.6389C33.4698 33.8546 33.1666 33.9265 33.0644 33.8065C31.4268 34.7467 29.4883 34.7417 29.4883 34.7417C36.9762 36.1329 35.2791 30.338 35.2791 30.338ZM34.4417 33.567C34.3684 33.6389 34.286 33.6777 34.2531 33.6476C34.2202 33.6172 34.2531 33.531 34.3209 33.456C34.389 33.3814 34.4766 33.3445 34.5095 33.3749C34.5424 33.4051 34.5132 33.4913 34.4417 33.567ZM34.5527 33.0273C34.4943 33.1273 34.4065 33.1856 34.3576 33.1583C34.3086 33.131 34.3166 33.0265 34.375 32.9265C34.4337 32.8265 34.5212 32.7684 34.5701 32.7963C34.619 32.8245 34.611 32.9273 34.5527 33.0273Z" fill="#333333"></path><path opacity="0.3" d="M32.5396 15.618C33.0125 16.8561 33.3707 18.1337 33.6101 19.4352C33.7921 19.5669 33.9637 19.964 34.0287 20.454C34.1019 20.9935 34.0192 21.4611 33.8453 21.5928C33.881 22.4709 33.813 23.3502 33.643 24.2129C33.6253 24.2017 33.6064 24.1925 33.5867 24.1856C33.3252 24.1136 33.0022 24.4331 32.8706 24.9007C32.7393 25.3683 32.84 25.8057 33.1009 25.8784C33.1089 25.8784 33.1178 25.8784 33.1258 25.8784C32.7473 26.7417 32.3613 27.146 32.3613 27.146C32.8686 27.0957 33.8871 28.369 33.8871 28.369C38.1038 20.8949 32.5396 15.618 32.5396 15.618Z" fill="#333333"></path><path opacity="0.3" d="M33.3438 23.6446C33.3438 23.451 33.2705 23.2949 33.1741 23.2949C33.0777 23.2949 33.0039 23.451 33.0039 23.6446C33.0039 23.8381 33.0771 23.9935 33.1741 23.9935C33.2714 23.9935 33.3438 23.8374 33.3438 23.6446Z" fill="#333333"></path><path opacity="0.15" d="M25.0175 26.5877C25.0175 26.5877 24.9992 26.9187 24.9269 27.3532C24.9084 27.345 24.8886 27.3399 24.8684 27.3381C24.7332 27.3381 24.6244 27.482 24.6244 27.6597C24.6204 27.7213 24.6346 27.7826 24.6653 27.8364C24.6961 27.8902 24.742 27.934 24.7975 27.9626C24.6682 28.4546 24.4673 28.9555 24.1523 29.2366L24.6068 29.1588C24.6068 29.1588 26.0506 28.5893 26.2969 27.2014C26.2969 27.2014 25.6941 26.5259 25.0175 26.5877Z" fill="black"></path><path opacity="0.15" d="M24.3086 28.5222C24.3561 28.5287 24.4043 28.4574 24.4168 28.3648C24.4292 28.2718 24.4007 28.1907 24.3532 28.1848C24.3057 28.1791 24.2575 28.2496 24.245 28.3425C24.2326 28.4352 24.2619 28.5166 24.3086 28.5222Z" fill="black"></path><path d="M15.4844 12.6668C15.9674 12.5949 16.3692 12.5625 16.785 12.5072C17.2007 12.4517 17.6311 12.3827 18.1784 12.2827C18.3245 12.2539 18.5495 12.2179 18.8264 12.1748L19.2816 12.115L19.514 12.0899C19.5987 12.0812 19.6843 12.0697 19.7712 12.064C19.9451 12.051 20.1241 12.0316 20.3075 12.0237C21.9268 11.9276 23.5517 12.0535 25.1357 12.3978C25.9134 12.5682 26.6793 12.7874 27.4286 13.0539L27.94 13.2467C28.1074 13.3093 28.2659 13.382 28.4223 13.446C28.7372 13.5719 29.0214 13.7136 29.2866 13.8359C29.4205 13.8949 29.5401 13.9625 29.6565 14.023L29.9844 14.1971C30.0882 14.2489 30.1795 14.3071 30.2641 14.3589L30.4982 14.5028L30.6859 14.6172C30.7408 14.6496 30.7823 14.6834 30.8189 14.7079L30.9285 14.7841L31.1828 14.9625C31.2237 14.9928 31.2712 15.0215 31.3187 15.0604L31.4729 15.1848C31.583 15.2755 31.7132 15.3733 31.85 15.4913L32.284 15.8892C32.4299 16.0431 32.5886 16.205 32.75 16.3812L32.9852 16.6633L33.1073 16.8071C33.146 16.8575 33.1803 16.9107 33.2221 16.9633L33.4566 17.2855L33.6758 17.6323C33.9816 18.1258 34.2377 18.6478 34.4399 19.1906C34.6494 19.7546 34.8079 20.3358 34.9134 20.9273C35.0124 21.5033 35.0642 22.0863 35.0676 22.6705C35.0736 22.9517 35.0582 23.2259 35.0465 23.4899C35.0347 23.6215 35.0239 23.7503 35.013 23.8769C35.0018 24.0035 34.9829 24.1266 34.9689 24.2474C34.9 24.7807 34.7933 25.3086 34.6496 25.8273C34.5 26.3496 34.3824 26.7589 34.2712 27.1474C34.1653 27.5617 34.0366 27.97 33.8855 28.3704C34.23 28.0826 34.5272 27.7444 34.7672 27.3676C35.0307 26.951 35.2313 26.4991 35.3629 26.0259C35.5208 25.4748 35.6375 24.9131 35.7122 24.3453C35.7274 24.2172 35.7494 24.0863 35.7597 23.9517C35.77 23.8172 35.7829 23.6791 35.7946 23.5388C35.8077 23.2582 35.8241 22.9668 35.8175 22.6668C35.8138 22.0429 35.7588 21.4202 35.653 20.805C35.5388 20.169 35.3677 19.5443 35.1414 18.9381C34.9223 18.3516 34.6454 17.7878 34.3144 17.2546C34.234 17.128 34.1559 17.0014 34.0755 16.8791L33.822 16.5309C33.7802 16.4741 33.7402 16.4172 33.6978 16.3625L33.5662 16.2043L33.3133 15.8992C33.1394 15.7086 32.9677 15.5337 32.8098 15.369L32.3429 14.9417C32.197 14.815 32.0574 14.71 31.9389 14.6129L31.773 14.4805C31.7226 14.4388 31.6714 14.4086 31.6271 14.3755L31.3544 14.1848L31.2397 14.1007C31.2002 14.0748 31.155 14.0388 31.0972 14.0035L30.8978 13.8848L30.6492 13.733C30.5588 13.6776 30.4624 13.6158 30.352 13.5604L30.005 13.3762C29.8828 13.3122 29.7543 13.2402 29.6162 13.1791C29.3415 13.0525 29.0463 12.905 28.7197 12.7741C28.5567 12.7071 28.3923 12.6302 28.2177 12.5668L27.6836 12.3654C26.9036 12.0872 26.1063 11.8586 25.2965 11.6812C23.6448 11.3207 21.9501 11.1892 20.2615 11.2906C20.07 11.2985 19.8837 11.3194 19.7025 11.3323C19.6112 11.3388 19.522 11.351 19.4344 11.3597L19.1918 11.3863C19.0208 11.4072 18.8615 11.4309 18.7168 11.4503C18.4246 11.4949 18.1944 11.5345 18.0395 11.5654C17.556 11.6534 17.0847 11.7968 16.6352 11.9928C16.2273 12.1745 15.8413 12.4006 15.4844 12.6668Z" fill="#202020"></path><path d="M29.1325 25.6511C29.4518 25.8475 29.7096 26.0201 29.9888 26.1827C30.268 26.3453 30.5653 26.5029 30.9504 26.6921C31.0542 26.7431 31.2099 26.8209 31.4004 26.9223C31.4962 26.9712 31.5984 27.0309 31.7097 27.0914L31.7643 27.1216L31.8593 27.177L32.0515 27.2899C32.178 27.3691 32.3079 27.4475 32.4352 27.5331C32.5622 27.6187 32.6924 27.7036 32.818 27.7971C32.9436 27.8906 33.0709 27.9856 33.1965 28.0849C33.26 28.1331 33.3201 28.187 33.3813 28.2389C33.4428 28.2907 33.5055 28.3431 33.5647 28.3986C33.6817 28.5101 33.805 28.6194 33.9154 28.7403C34.1472 28.9783 34.3566 29.2369 34.5408 29.5121L34.6753 29.7237C34.7162 29.7958 34.7542 29.8676 34.7937 29.9445C34.8135 29.982 34.8352 30.0166 34.8521 30.056L34.901 30.1718L34.9508 30.2879C34.9685 30.3256 34.9834 30.3648 34.9954 30.4051C35.0209 30.4848 35.0466 30.5648 35.0727 30.6453C35.099 30.7259 35.1101 30.8087 35.1299 30.8907L35.1568 31.0144L35.1708 31.1403C35.1788 31.2245 35.1934 31.3079 35.1971 31.3927C35.204 31.5634 35.1994 31.7344 35.1831 31.9042C35.1714 32.0741 35.1445 32.2428 35.1027 32.4079C35.0615 32.5715 35.0054 32.731 34.9353 32.8848C34.8641 33.0363 34.7783 33.1808 34.6796 33.3166C34.4767 33.5901 34.2235 33.8239 33.9337 34.0065C33.6388 34.1915 33.3192 34.3352 32.9839 34.4329C32.3047 34.6242 31.5972 34.6975 30.8926 34.649C30.2131 34.6076 29.5405 34.4896 28.8884 34.2972C27.7494 33.9687 26.6806 33.4389 25.7342 32.7338C25.3659 32.4577 25.0213 32.1521 24.7039 31.8203C24.5578 31.6763 24.438 31.5324 24.3262 31.3958C24.3035 31.3684 24.2531 31.3129 24.2144 31.2727C24.1709 31.2315 24.124 31.1944 24.0741 31.1611C23.9811 31.0994 23.8781 31.0538 23.7694 31.0265C23.5856 30.9806 23.3924 30.9865 23.2119 31.0439C23.0793 31.0868 22.9575 31.1569 22.8546 31.2496C22.8137 31.2862 22.7815 31.3259 22.7538 31.3532L22.7056 31.4093L22.6661 31.4555L22.5083 31.6324C22.4045 31.7476 22.2474 31.9138 22.037 32.1166C21.4512 32.6831 20.7964 33.176 20.0876 33.5842C19.6084 33.8589 19.1039 34.0884 18.5809 34.2698C18.4421 34.3217 18.2975 34.362 18.1521 34.4079C18.0066 34.4541 17.8598 34.4913 17.7034 34.5231C17.3914 34.5952 17.0755 34.6499 16.7572 34.687C16.0806 34.7634 15.3974 34.7634 14.7208 34.687C14.0245 34.6152 13.3223 34.4569 12.6954 34.1453C12.54 34.0673 12.3901 33.9791 12.2468 33.8814C12.1061 33.7828 11.9735 33.6735 11.8501 33.5546C11.7294 33.4355 11.6198 33.3059 11.5227 33.1676C11.428 33.0287 11.3474 32.8811 11.2823 32.7265C11.1535 32.4146 11.0873 32.0814 11.0872 31.7445C11.0897 31.4039 11.1446 31.0656 11.2502 30.7411C11.4584 30.0862 11.8398 29.4927 12.287 28.9862C12.5089 28.7355 12.75 28.5017 13.0082 28.287C13.1353 28.1806 13.2639 28.0791 13.3954 27.9835C13.4619 27.936 13.5262 27.887 13.5942 27.8396L13.6935 27.7719L13.7439 27.7381L13.7651 27.7244C14.1135 27.4991 14.477 27.2972 14.8531 27.1201C15.2367 26.9396 15.5385 26.7978 15.8234 26.6511C16.1084 26.5043 16.3787 26.3525 16.7119 26.1777C16.369 26.1739 16.0265 26.202 15.689 26.2618C15.3149 26.3348 14.952 26.4547 14.609 26.6187C14.2074 26.8048 13.8196 27.0188 13.4487 27.259L13.4254 27.2734L13.372 27.3093L13.2654 27.3813C13.1923 27.4288 13.1236 27.4813 13.0527 27.5324C12.9117 27.6352 12.7729 27.7446 12.6355 27.859C12.3563 28.0919 12.0952 28.3451 11.8544 28.6166C11.338 29.1842 10.9458 29.8507 10.7022 30.5741C10.5792 30.9541 10.5156 31.3501 10.5137 31.749C10.5133 32.1589 10.5943 32.5651 10.7519 32.9445C10.8307 33.1346 10.9286 33.3163 11.0441 33.487C11.1621 33.6552 11.2951 33.8127 11.4416 33.9575C11.5882 34.0986 11.7458 34.2284 11.9129 34.3453C12.0787 34.4586 12.252 34.5606 12.4317 34.651C13.1463 35.0056 13.9156 35.1741 14.6551 35.2504C15.0202 35.2901 15.3874 35.3099 15.7547 35.3093C16.111 35.3079 16.4669 35.287 16.8208 35.2468C17.1607 35.207 17.4981 35.1484 17.8313 35.0713C17.995 35.0375 18.1528 34.9893 18.3099 34.9482C18.467 34.9073 18.6197 34.856 18.7673 34.8042C19.3251 34.6107 19.8633 34.3659 20.3747 34.0735C21.1243 33.6406 21.8167 33.118 22.4359 32.518C22.6551 32.3022 22.8224 32.1287 22.9328 32.0073L23.0994 31.8203L23.141 31.7718L23.1922 31.7121C23.209 31.6963 23.2199 31.6814 23.2389 31.6648C23.2823 31.6253 23.3336 31.5955 23.3895 31.5769C23.4665 31.5532 23.5487 31.551 23.6269 31.5704C23.6732 31.5817 23.717 31.6014 23.7563 31.6282C23.7775 31.6422 23.7976 31.658 23.8162 31.6755C23.8359 31.6963 23.8476 31.7073 23.8826 31.7476C24.0032 31.8913 24.1362 32.0468 24.2874 32.2028C24.626 32.5575 24.9938 32.8837 25.3871 33.1783C26.3877 33.9273 27.5185 34.4904 28.7241 34.8403C29.4183 35.0451 30.1341 35.1704 30.8577 35.2144C31.6293 35.2676 32.4046 35.1876 33.1481 34.9783C33.5352 34.8653 33.904 34.6994 34.2441 34.4856C34.594 34.2653 34.899 33.9828 35.1436 33.6524C35.2646 33.4856 35.3693 33.3079 35.4563 33.1217C35.5413 32.936 35.6088 32.7437 35.658 32.5459C35.7078 32.3521 35.7398 32.1544 35.753 31.9546C35.7727 31.7594 35.7784 31.5631 35.7707 31.367C35.7656 31.2684 35.7501 31.1704 35.7407 31.0727L35.7232 30.9287L35.6923 30.7848C35.6697 30.6899 35.6543 30.5927 35.626 30.4972C35.5974 30.4014 35.5667 30.3121 35.5367 30.2203C35.5227 30.1741 35.5058 30.1287 35.4855 30.0848L35.4286 29.9524L35.3725 29.8203C35.3527 29.7763 35.3284 29.736 35.3067 29.6935C35.2621 29.6093 35.2189 29.5251 35.1722 29.4431L35.0209 29.2056C34.8183 28.9022 34.588 28.6177 34.3325 28.3555C34.2121 28.2231 34.0799 28.1057 33.9535 27.9849C33.8891 27.9259 33.8219 27.8712 33.7569 27.8144C33.692 27.7575 33.6268 27.7014 33.5595 27.6504C33.4259 27.5446 33.2937 27.4403 33.1578 27.3453C33.022 27.2504 32.8881 27.1561 32.7545 27.0662C32.6206 26.9762 32.4841 26.8942 32.3511 26.8115L32.1508 26.6906L32.0515 26.6324L31.9937 26.6007C31.8784 26.5381 31.7746 26.4762 31.6716 26.4252C31.4736 26.3209 31.3114 26.241 31.2024 26.1885C30.8648 26.0229 30.5101 25.8934 30.1444 25.8022C29.8123 25.7221 29.4738 25.6716 29.1325 25.6511Z" fill="#202020"></path><path d="M25.6831 24.2921C25.594 24.023 25.491 23.8604 25.2374 23.7417C24.924 23.6033 24.5962 23.4991 24.2598 23.4309C24.0766 23.3932 23.8911 23.3675 23.7045 23.3539C23.6314 23.3467 23.5693 23.346 23.5262 23.3439H23.4597H23.3925C23.3501 23.3439 23.2887 23.3439 23.2135 23.3439C23.025 23.3514 22.8372 23.3718 22.6516 23.405C22.4468 23.442 22.2455 23.4954 22.0495 23.5647C21.9597 23.5942 21.8822 23.6295 21.8157 23.6561C21.7492 23.6827 21.6974 23.7086 21.663 23.728C21.408 23.8525 21.3189 24.028 21.2363 24.2942C21.5242 24.3244 21.6864 24.3345 21.9093 24.2345C21.9392 24.2201 21.9823 24.1985 22.0415 24.1762C22.1007 24.1539 22.1657 24.1237 22.2425 24.0993C22.4091 24.0406 22.5801 23.9947 22.7539 23.9618C22.9128 23.9335 23.0734 23.9155 23.2347 23.9079C23.299 23.9079 23.3516 23.9079 23.3889 23.9079H23.4458H23.5036C23.5408 23.9079 23.5934 23.9079 23.6577 23.9165C23.8204 23.9302 23.9819 23.9543 24.1414 23.9885C24.4377 24.051 24.727 24.1421 25.0051 24.2604C25.1052 24.3048 25.2132 24.3293 25.3229 24.3324C25.4437 24.326 25.564 24.3126 25.6831 24.2921Z" fill="#202020"></path><path d="M8.20269 19.2345C8.01147 19.63 7.85335 20.0402 7.72996 20.4611C7.60021 20.9232 7.51653 21.3967 7.48006 21.8748C7.46398 22.0669 7.43623 22.3784 7.40699 23.0258C7.38141 23.582 7.37337 24.5208 7.42307 25.3208C7.44572 25.7208 7.47785 26.0856 7.50783 26.3503C7.52171 26.4827 7.53633 26.5899 7.54508 26.664L7.5597 26.7798L7.61086 27.1395C7.64444 27.3654 7.6978 27.6777 7.77087 28.0266C7.84394 28.3755 7.93892 28.7605 8.04998 29.1295C8.16104 29.4986 8.28743 29.849 8.40508 30.1425C8.54068 30.4808 8.69609 30.8109 8.87052 31.1315C8.93772 31.2583 9.00349 31.3648 9.0561 31.4574L9.20224 31.6856C9.70602 32.4946 10.4721 33.1126 11.3767 33.4402C11.0975 33.1149 10.836 32.7752 10.5934 32.4222C10.3596 32.0893 10.1185 31.7476 9.82841 31.2949L9.6991 31.0862C9.6516 31.0008 9.59167 30.9028 9.5303 30.7862C9.37023 30.4912 9.2273 30.1873 9.10214 29.8763C8.99325 29.6056 8.87418 29.2755 8.76967 28.9273C8.66519 28.5791 8.57313 28.2152 8.50372 27.8834C8.43431 27.5518 8.38242 27.2525 8.34883 27.0367L8.29839 26.6906C8.29839 26.6906 8.27794 26.5331 8.2509 26.2784C8.22386 26.0237 8.19245 25.6719 8.17125 25.2856C8.12451 24.5129 8.13326 23.6007 8.15592 23.0589C8.18224 22.4266 8.20779 22.1237 8.22169 21.9352C8.26332 21.3834 8.27939 20.9496 8.27136 20.5331C8.26332 20.1165 8.22899 19.7158 8.20269 19.2345Z" fill="#202020"></path><path d="M23.5361 31.2735C23.6731 31.1541 23.7859 31.0104 23.8686 30.8496C23.9475 30.6963 24.0069 30.5338 24.0454 30.3662C24.0847 30.1913 24.106 30.013 24.1089 29.8338C24.1089 29.7862 24.1089 29.738 24.1089 29.6899C24.1089 29.6648 24.1089 29.6403 24.1089 29.618V29.5986C24.1089 29.5899 24.1089 29.5986 24.1089 29.5935C24.1099 29.5927 24.111 29.5924 24.1122 29.5924C24.1134 29.5924 24.1146 29.5927 24.1155 29.5935L24.1543 29.5862C24.1871 29.58 24.2222 29.5749 24.2595 29.5648C24.4672 29.5177 24.6693 29.449 24.8622 29.3597C25.0975 29.2507 25.317 29.1115 25.5147 28.9453C25.7369 28.7577 25.9321 28.5414 26.0949 28.3023C26.2403 28.0902 26.3628 27.8638 26.4602 27.6266L26.4895 27.5547L26.5216 27.4662C26.5508 27.3806 26.5742 27.3014 26.591 27.2295L26.6166 27.1274L26.6224 27.1036C26.6224 27.0993 26.6224 27.0964 26.618 27.0943L26.6078 27.0863L26.5713 27.0575C26.5238 27.0209 26.4829 26.9856 26.4471 26.9626C26.3981 26.9252 26.3499 26.8906 26.3009 26.8561L26.222 26.8036C26.1723 26.7698 26.1234 26.7403 26.0759 26.7115C25.9824 26.6547 25.8976 26.6058 25.8194 26.5676C25.6652 26.482 25.5403 26.4237 25.4446 26.3799C25.2532 26.2935 25.1786 26.2669 25.1786 26.2669L25.0778 26.2274C25.0113 26.205 24.9163 26.1676 24.7943 26.1317C24.472 26.0308 24.1387 25.9678 23.8013 25.9439C23.5902 25.9303 23.3783 25.9341 23.1678 25.9554C23.0597 25.9727 22.9486 25.982 22.842 26.0086C22.7879 26.0209 22.7331 26.0317 22.6798 26.0453L22.5212 26.0921C22.1349 26.215 21.7737 26.4042 21.4544 26.6511C21.3814 26.7072 21.3171 26.7597 21.255 26.8115L21.1578 26.8892C21.1059 26.9388 21.0496 26.9863 21.0051 27.0331L20.9371 27.105C20.9328 27.1108 20.9225 27.1151 20.924 27.123L20.9298 27.1461L20.9408 27.1914C20.9554 27.2518 20.9729 27.3108 20.9897 27.3676C20.9978 27.3957 21.0058 27.4252 21.0153 27.4511L21.0343 27.505C21.0453 27.5345 21.0555 27.5626 21.0664 27.5885C21.1297 27.7487 21.2054 27.9039 21.293 28.0525C21.4896 28.4028 21.7786 28.6944 22.1296 28.8963C22.4404 29.0696 22.7917 29.1597 23.1488 29.1583C22.8635 29.0037 22.6052 28.8051 22.3838 28.5699C22.1512 28.3287 21.95 28.0599 21.7847 27.7698C21.7128 27.6447 21.6503 27.5146 21.5977 27.3806C21.5884 27.358 21.5796 27.3341 21.5713 27.3086L21.5618 27.2813L21.6298 27.2187C21.6831 27.1741 21.7408 27.1295 21.8008 27.0813C22.0679 26.8766 22.3697 26.72 22.6922 26.6187L22.823 26.5792C22.8668 26.5676 22.9121 26.5597 22.9567 26.5489C23.0451 26.5259 23.1372 26.5194 23.227 26.5043C23.404 26.4863 23.5822 26.483 23.7597 26.4943C24.0521 26.5146 24.341 26.5689 24.6204 26.6561C24.7278 26.6871 24.8126 26.7209 24.8717 26.7403L24.9624 26.7755C24.9624 26.7755 25.0281 26.7993 25.2006 26.877C25.286 26.9173 25.3986 26.9698 25.5381 27.0468C25.6112 27.0849 25.6842 27.1295 25.769 27.1806C25.8107 27.2065 25.8545 27.2331 25.8991 27.2626L25.9663 27.3072C25.9663 27.2986 25.9575 27.3317 25.9502 27.3489L25.9254 27.4115C25.843 27.6132 25.7389 27.8057 25.6148 27.9856C25.481 28.1825 25.3205 28.3608 25.1377 28.5152C24.9791 28.649 24.8029 28.7614 24.6138 28.849C24.4577 28.9217 24.294 28.9775 24.1258 29.0158C24.0951 29.0245 24.0658 29.0287 24.0388 29.0346L23.992 29.0431C23.9643 29.0482 23.938 29.0541 23.9117 29.0569L23.6486 29.0899L23.4871 29.1107C23.4462 29.1042 23.4696 29.1439 23.4711 29.1676L23.4857 29.2468C23.5061 29.3524 23.5237 29.4524 23.5398 29.5496C23.5478 29.6121 23.5566 29.6735 23.5646 29.7338C23.5705 29.7769 23.5763 29.8194 23.5807 29.8611C23.6011 30.0282 23.6179 30.1828 23.6282 30.3338C23.6404 30.4845 23.6431 30.6361 23.6362 30.787C23.6292 30.9532 23.5955 31.1175 23.5361 31.2735Z" fill="#202020"></path><path d="M19.4043 34.2445C19.6063 34.5217 19.846 34.7704 20.1167 34.9833C20.42 35.2171 20.7572 35.4045 21.117 35.5394C21.19 35.569 21.2836 35.6028 21.4238 35.6504C21.4925 35.6755 21.5751 35.6986 21.6701 35.7264C21.7651 35.7546 21.8761 35.7833 22.0033 35.8152C22.1026 35.8425 22.2407 35.8648 22.3876 35.8949C22.4607 35.9079 22.5396 35.918 22.6163 35.9287L22.731 35.9453L22.8443 35.956L23.054 35.9749C23.119 35.9791 23.1774 35.9791 23.2271 35.9814L23.3871 35.987H23.4237H23.523C23.6071 35.987 23.7247 35.987 23.8562 35.9769C24.1262 35.9608 24.3948 35.9264 24.66 35.874L24.9055 35.8236C24.9829 35.8056 25.0516 35.7833 25.1247 35.7653L25.3198 35.7121L25.4893 35.6546C25.5945 35.6171 25.6873 35.5884 25.764 35.5569L25.9569 35.4769C26.057 35.4371 26.1546 35.3915 26.2492 35.3402C26.3398 35.2921 26.4252 35.2453 26.5063 35.1963C26.6649 35.0971 26.8037 34.9935 26.936 34.8921C27.0682 34.7907 27.1815 34.6698 27.3013 34.5518C27.4212 34.4338 27.5264 34.2943 27.6447 34.1518C27.4694 34.2236 27.3123 34.2907 27.1632 34.3569C27.0142 34.4231 26.8629 34.4755 26.7183 34.5417C26.5736 34.6079 26.4209 34.6648 26.2616 34.736C26.1805 34.769 26.0972 34.8042 26.0102 34.8425C25.9233 34.8805 25.8327 34.9186 25.7355 34.9583L25.558 35.0301C25.4849 35.0583 25.4023 35.0842 25.3059 35.118L25.151 35.1704L24.9734 35.2186C24.9106 35.2352 24.8448 35.2546 24.7747 35.2712L24.5518 35.3171C24.3105 35.3636 24.0665 35.3952 23.8211 35.4115C23.7021 35.4217 23.5961 35.4186 23.5194 35.4222H23.4288H23.3959L23.2498 35.4157C23.2045 35.4157 23.1512 35.4157 23.0927 35.4093L22.902 35.3912L22.7997 35.3814L22.6945 35.3662C22.6214 35.3555 22.5542 35.3467 22.487 35.3346C22.3525 35.3073 22.2276 35.287 22.1362 35.2625C22.0201 35.2338 21.917 35.2101 21.8316 35.1828C21.7461 35.1555 21.6686 35.136 21.6051 35.1107C21.4765 35.0676 21.3859 35.0388 21.323 35.0107C20.9314 34.8619 20.6267 34.7366 20.33 34.6217C20.0334 34.5064 19.7448 34.4064 19.4043 34.2445Z" fill="#202020"></path><path d="M28.4121 13.0388C28.5882 12.8719 28.757 12.7288 28.9185 12.5899C29.0798 12.451 29.2349 12.3194 29.3905 12.182C29.7009 11.9079 30.0188 11.6165 30.4193 11.2467L30.5406 11.1359L30.6136 11.064L30.708 10.9856L30.9489 10.7913C31.0404 10.7194 31.1514 10.6381 31.2756 10.5439L31.3837 10.4626C31.4209 10.4359 31.4604 10.4115 31.4999 10.3849L31.7476 10.2223C31.8309 10.1633 31.9236 10.1158 32.0165 10.0618C32.1092 10.0079 32.2057 9.95248 32.3044 9.89924L32.6156 9.75535L32.775 9.68344L32.9429 9.62011L33.2865 9.49062C33.4178 9.44313 33.5523 9.39997 33.683 9.34313C34.2229 9.12082 34.729 8.8262 35.1867 8.46761C35.6282 8.11899 36.0416 7.73727 36.4232 7.32586C36.7886 6.94386 37.1244 6.57766 37.4497 6.33738C37.5893 6.22854 37.7464 6.14344 37.9143 6.08558L38.0225 6.05752L38.1278 6.04313C38.1629 6.04313 38.1964 6.04313 38.2302 6.03882H38.2614H38.2556C38.2559 6.04242 38.2559 6.04603 38.2556 6.04961C38.2642 6.0731 38.2714 6.09716 38.2768 6.12155C38.3 6.21834 38.3154 6.31671 38.3237 6.4158C38.3317 6.50285 38.3352 6.57335 38.3375 6.62085V6.69279C38.3375 6.69279 38.3375 6.77696 38.3375 6.93378C38.3375 7.09062 38.3286 7.32085 38.3083 7.60859C38.2665 8.18414 38.1687 8.99133 38.0116 9.89062C37.8545 10.7899 37.6463 11.7827 37.3985 12.7359C37.1507 13.6892 36.879 14.6014 36.6175 15.3475C36.3368 16.146 36.1265 16.6223 36.0175 16.8697C35.7932 17.3697 35.6239 17.759 35.4617 18.1302C35.3798 18.3158 35.2994 18.4957 35.2065 18.6798C35.1098 18.878 34.9908 19.0648 34.8514 19.2366C35.0677 19.1461 35.2694 19.0249 35.4499 18.877C35.6213 18.7383 35.7792 18.5844 35.922 18.4172C36.2375 18.0386 36.4976 17.6182 36.6941 17.1683C36.8117 16.9093 37.0326 16.4115 37.3227 15.5856C37.593 14.8179 37.8748 13.8856 38.1226 12.9136C38.3704 11.9417 38.5866 10.9316 38.7451 10.0122C38.9036 9.09279 39.006 8.264 39.0484 7.65896C39.0747 7.3304 39.0839 7.00071 39.0761 6.67119V6.58775C39.0761 6.53307 39.0704 6.45248 39.0601 6.346C39.049 6.20958 39.0272 6.07417 38.9952 5.94099C38.984 5.89924 38.9709 5.85465 38.9543 5.80572C38.9497 5.79279 38.9468 5.78558 38.9388 5.76471C38.9308 5.74386 38.9228 5.72659 38.9148 5.71006C38.897 5.67696 38.881 5.63811 38.8599 5.60933C38.8192 5.53958 38.764 5.47893 38.6982 5.43113C38.6324 5.38333 38.5575 5.34947 38.4776 5.33164C38.4327 5.32195 38.3869 5.31665 38.3412 5.31581L38.2368 5.30859L38.0577 5.31507C37.997 5.32228 37.9349 5.33234 37.872 5.34169C37.8093 5.35104 37.7487 5.37119 37.6857 5.38919C37.438 5.47006 37.206 5.59166 36.9997 5.7489C36.584 6.05896 36.2404 6.44457 35.8774 6.81941C35.5215 7.20338 35.1358 7.55983 34.7244 7.88558C34.5187 8.0433 34.3027 8.18749 34.0776 8.31724C33.8578 8.44504 33.6287 8.55685 33.3924 8.65178C33.2776 8.70214 33.1586 8.73882 33.0439 8.78127L32.6608 8.92516L32.4732 8.9971L32.2955 9.08054L31.9507 9.24456C31.8412 9.30285 31.7373 9.36473 31.6343 9.42228C31.5313 9.47983 31.4298 9.53521 31.3419 9.59854L31.0753 9.78414C31.0324 9.81293 30.9883 9.84025 30.9483 9.86904L30.8313 9.95682C30.6968 10.059 30.5769 10.1439 30.4785 10.2259L30.2233 10.4417L30.1232 10.5266L30.0408 10.6021L29.9121 10.7216C29.5487 11.0534 29.2326 11.4318 28.9718 11.8467C28.8586 12.0291 28.7567 12.2179 28.6664 12.4122C28.5698 12.6163 28.4849 12.8254 28.4121 13.0388Z" fill="#202020"></path><path d="M31.5 14.7316C32.029 14.2029 32.3694 13.8374 32.8349 13.1093L33.3098 12.3741C33.561 11.9878 33.9879 11.3388 34.3612 10.7914C34.7346 10.2439 35.0524 9.80429 35.0524 9.80429C35.0524 9.80429 35.3185 9.43308 35.6706 8.97119C36.0228 8.50933 36.4677 7.96401 36.8044 7.5935C37.0742 7.28359 37.3743 7.00046 37.7002 6.74818C37.8269 6.64807 37.9668 6.56553 38.1162 6.50285C38.1556 6.48733 38.1977 6.47832 38.2403 6.47624C38.2778 6.47621 38.3138 6.49038 38.341 6.51581C38.4349 6.61221 38.5058 6.72795 38.5487 6.85466C38.6111 7.0128 38.6626 7.17508 38.7021 7.34026C38.7481 7.16922 38.7767 6.99398 38.7868 6.81725C38.7916 6.72852 38.787 6.63956 38.773 6.55178C38.7579 6.45204 38.7241 6.35593 38.6735 6.26832C38.6071 6.15649 38.5041 6.07004 38.3814 6.023C38.2552 5.97821 38.1187 5.969 37.9874 5.99638C37.758 6.05066 37.5431 6.15297 37.3577 6.29638C37.166 6.43308 36.8307 6.71364 36.3741 7.21581C36.0211 7.59928 35.5659 8.1604 35.2095 8.63235C34.853 9.10429 34.5846 9.47911 34.5846 9.47911C34.5846 9.47911 34.2611 9.92587 33.884 10.4755C33.5069 11.0252 33.0752 11.677 32.8237 12.0669C32.5534 12.4849 32.4264 12.6878 32.3483 12.8122C31.8908 13.5489 31.7154 14.0201 31.5 14.7316Z" fill="#202020"></path><path d="M8.95026 19.7252C9.23028 19.5332 9.49706 19.3231 9.74885 19.0964C10.0204 18.8442 10.2686 18.5688 10.4905 18.2734C10.5636 18.1798 10.6702 18.0374 10.8003 17.859C10.866 17.7697 10.9355 17.6705 11.0115 17.5654L11.0692 17.482L11.1386 17.3813C11.1853 17.3093 11.2336 17.2453 11.2803 17.1734C11.3746 17.0295 11.4696 16.8856 11.5638 16.7331C11.6099 16.6611 11.6574 16.5849 11.7041 16.5093C11.7509 16.4338 11.7976 16.3604 11.8503 16.2877C11.9029 16.2151 11.9489 16.1396 12.0022 16.0719C12.0556 16.0043 12.1074 15.928 12.1644 15.8561L12.2441 15.7482L12.3325 15.646C12.3902 15.5741 12.4553 15.5144 12.5174 15.4482C12.646 15.3216 12.7842 15.205 12.9309 15.0993C13.0838 14.9926 13.2439 14.8965 13.4102 14.8115C13.495 14.7662 13.5834 14.723 13.6725 14.6791L14.176 14.4345L14.2096 14.418L14.2264 14.4093C14.2315 14.4093 14.2264 14.405 14.2264 14.4028L14.222 14.3942L14.1876 14.3273L14.1197 14.1935L13.9831 13.9273L13.9005 13.7748C13.8764 13.7288 13.8501 13.6849 13.8274 13.6403C13.7273 13.4618 13.6192 13.2885 13.5103 13.1172C13.0856 12.4688 12.6148 11.8507 12.1016 11.2676C11.623 10.7187 11.1561 10.2417 10.7491 9.84747C10.3422 9.45321 9.99363 9.14242 9.7496 8.92876C9.50556 8.71507 9.36455 8.59854 9.36455 8.59854C9.36455 8.59854 9.22571 8.47983 8.97363 8.27479C8.72156 8.06975 8.35547 7.77983 7.89664 7.4453C7.36743 7.05614 6.81873 6.69333 6.25264 6.35826C5.92224 6.1622 5.5807 5.98493 5.22969 5.82733C5.0397 5.74324 4.84447 5.67116 4.64518 5.6115C4.5389 5.57876 4.4305 5.55304 4.32075 5.53451C4.19582 5.51113 4.06811 5.50555 3.94154 5.51797C3.90426 5.5213 3.86735 5.5278 3.83119 5.53738C3.79068 5.54721 3.75109 5.56045 3.71284 5.57696C3.64652 5.60358 3.58653 5.64352 3.53675 5.69423C3.51995 5.70913 3.50433 5.72524 3.48997 5.74242C3.44829 5.79166 3.41067 5.84411 3.37745 5.89924L3.32996 5.98558L3.29343 6.07118C3.21181 6.28766 3.16712 6.51592 3.16119 6.74673C3.15383 7.16172 3.18588 7.57648 3.2569 7.98558C3.31829 8.38127 3.39136 8.764 3.46442 9.13668L3.67484 10.1935C3.7859 10.751 3.86847 11.2079 3.90867 11.4359C4.0548 12.2798 4.21553 12.7431 4.46835 13.4424C4.57795 12.7086 4.61082 12.2007 4.46835 11.3424C4.43035 11.1108 4.34779 10.6467 4.23598 10.0856L4.0241 9.02733C3.95104 8.65896 3.87797 8.282 3.82098 7.90214C3.75767 7.52921 3.7288 7.15141 3.73475 6.77335C3.73821 6.60527 3.76931 6.43885 3.82682 6.28054L3.84802 6.22876L3.87431 6.18271C3.89101 6.15344 3.91007 6.12552 3.9313 6.09924C3.93788 6.08918 3.9357 6.09924 3.93716 6.09423C3.93716 6.09423 3.93716 6.09423 3.94812 6.08989C3.95579 6.08626 3.96388 6.08361 3.97224 6.082C3.98434 6.07848 3.99687 6.07657 4.00948 6.07623C4.08275 6.06958 4.15665 6.07369 4.22869 6.08845C4.31426 6.10288 4.39874 6.12307 4.48151 6.1489C4.65594 6.20304 4.82676 6.26792 4.99295 6.34313C5.32433 6.4929 5.64684 6.66104 5.95891 6.84673C6.50944 7.17141 7.043 7.52319 7.55759 7.90071C8.00624 8.22733 8.36134 8.51149 8.61121 8.71149C8.86111 8.91149 8.99483 9.02803 8.99483 9.02803C8.99483 9.02803 9.13218 9.14242 9.37184 9.35178C9.6115 9.56113 9.95052 9.86617 10.3495 10.251C10.7484 10.6359 11.2029 11.1036 11.6647 11.6374C12.16 12.2002 12.6141 12.7969 13.0237 13.423C13.1275 13.5863 13.2305 13.751 13.3255 13.9201C13.3496 13.9626 13.3744 14.0043 13.3986 14.0467L13.4585 14.1583H13.4526L13.4183 14.1755C13.3262 14.2208 13.2341 14.2654 13.1414 14.3144C12.9523 14.4121 12.77 14.5219 12.5955 14.6431C12.4236 14.7674 12.2614 14.9042 12.1104 15.0525C12.0373 15.128 11.9642 15.2007 11.8999 15.2784L11.7998 15.3928L11.707 15.5101C11.6442 15.587 11.5872 15.6662 11.5302 15.7446C11.4732 15.823 11.4206 15.9021 11.3673 15.9805C11.3139 16.059 11.2643 16.1374 11.2153 16.2151L11.075 16.4396C10.9851 16.5834 10.8931 16.7273 10.8018 16.864C10.7579 16.9359 10.7104 16.9993 10.6651 17.0654L10.5979 17.1633L10.5416 17.2439L10.3363 17.5316C10.2092 17.7065 10.1054 17.8467 10.0353 17.9396C9.81431 18.2279 9.61013 18.5284 9.42371 18.8396C9.25786 19.1165 9.11902 19.3935 8.95026 19.7252Z" fill="#202020"></path><path d="M3.71602 5.91003C3.60079 5.99648 3.50583 6.10643 3.43766 6.23232L3.39017 6.3244L3.35217 6.41792C3.32823 6.48144 3.3082 6.54629 3.29224 6.61217C3.23034 6.90603 3.218 7.20789 3.25571 7.5057C3.2674 7.6237 3.28786 7.81505 3.35143 8.20356C3.41792 8.62513 3.61812 9.60139 3.61812 9.60139C3.61812 9.60139 3.78105 10.4179 3.86508 10.8697C3.96006 11.3776 4.01121 11.6928 4.03753 11.8568C4.14347 12.523 4.2677 12.8899 4.4657 13.4395C4.55264 12.864 4.58114 12.464 4.48032 11.7884C4.45474 11.6215 4.40725 11.3014 4.30932 10.7884C4.22604 10.3316 4.05871 9.51505 4.05871 9.51505C4.05871 9.51505 3.86145 8.54023 3.79421 8.12944C3.73139 7.75032 3.71239 7.56972 3.69923 7.45823C3.66487 7.13088 3.63566 6.88268 3.61958 6.64096C3.61958 6.58268 3.61154 6.52226 3.61375 6.46471V6.37764L3.62104 6.28843C3.629 6.15764 3.66118 6.02939 3.71602 5.91003Z" fill="#202020"></path><path d="M16.3052 24.9337C17.3108 24.9337 18.126 24.1311 18.126 23.141C18.126 22.1508 17.3108 21.3481 16.3052 21.3481C15.2996 21.3481 14.4844 22.1508 14.4844 23.141C14.4844 24.1311 15.2996 24.9337 16.3052 24.9337Z" fill="black"></path><path fill-rule="evenodd" clip-rule="evenodd" d="M16.3054 21.4561C15.3603 21.4561 14.5942 22.2104 14.5942 23.141C14.5942 24.0715 15.3603 24.8258 16.3054 24.8258C17.2505 24.8258 18.0166 24.0715 18.0166 23.141C18.0166 22.2104 17.2505 21.4561 16.3054 21.4561ZM14.375 23.141C14.375 22.0912 15.2393 21.2402 16.3054 21.2402C17.3716 21.2402 18.2358 22.0912 18.2358 23.141C18.2358 24.1907 17.3716 25.0417 16.3054 25.0417C15.2393 25.0417 14.375 24.1907 14.375 23.141Z" fill="black"></path><path d="M29.9561 24.6611C30.8087 24.6611 31.4999 23.9805 31.4999 23.141C31.4999 22.3014 30.8087 21.6208 29.9561 21.6208C29.1033 21.6208 28.4121 22.3014 28.4121 23.141C28.4121 23.9805 29.1033 24.6611 29.9561 24.6611Z" fill="black"></path><path fill-rule="evenodd" clip-rule="evenodd" d="M29.9544 21.7288C29.1622 21.7288 28.52 22.361 28.52 23.141C28.52 23.9209 29.1622 24.5532 29.9544 24.5532C30.7463 24.5532 31.3886 23.9209 31.3886 23.141C31.3886 22.361 30.7463 21.7288 29.9544 21.7288ZM28.3008 23.141C28.3008 22.2418 29.0412 21.5129 29.9544 21.5129C30.8676 21.5129 31.6077 22.2418 31.6077 23.141C31.6077 24.0401 30.8676 24.7691 29.9544 24.7691C29.0412 24.7691 28.3008 24.0401 28.3008 23.141Z" fill="black"></path><path d="M15.907 13.2705C15.9093 13.0423 15.8932 12.8142 15.8588 12.5884C15.7528 11.8783 15.4585 11.2083 15.0054 10.646C14.8592 10.4599 14.7013 10.2831 14.5326 10.1165C14.4259 10.0086 14.3024 9.89636 14.1673 9.78127L14.0701 9.70214C14.0336 9.67191 13.997 9.64242 13.9561 9.61436C13.8772 9.55752 13.8005 9.49636 13.7165 9.44312C13.6324 9.38989 13.5491 9.3309 13.46 9.28053C13.3709 9.23019 13.2824 9.17552 13.1875 9.12946L13.0472 9.05752C12.999 9.03377 12.95 9.01363 12.9011 8.99135L12.7549 8.92515L12.6022 8.86687L12.448 8.80862L12.2895 8.75896L11.9855 8.66329C11.7912 8.60214 11.591 8.54456 11.401 8.46831C11.3038 8.43234 11.2044 8.39636 11.1087 8.35969L10.8208 8.23521C10.4352 8.06543 10.067 7.85972 9.72117 7.62084C9.37002 7.37265 9.03521 7.10281 8.71871 6.81293C8.39431 6.52515 8.07208 6.22228 7.73744 5.94386C7.40277 5.66543 7.06667 5.40214 6.72765 5.17118C6.40394 4.93805 6.06189 4.7307 5.7047 4.55104C5.53471 4.46566 5.35951 4.3907 5.1801 4.32659C5.00618 4.26501 4.82692 4.21924 4.64454 4.18988C4.46456 4.16107 4.28146 4.15622 4.10019 4.17552C3.77104 4.20969 3.46192 4.34772 3.21899 4.56904C3.16931 4.6158 3.12255 4.66256 3.08163 4.70859C3.04071 4.75465 3.00272 4.79924 2.97276 4.84312C2.8776 4.97394 2.79678 5.11428 2.73164 5.26183L2.68341 5.37408C2.67245 5.39924 2.66807 5.41219 2.66807 5.41219C2.66807 5.41219 2.64761 5.46473 2.61327 5.56329C2.56663 5.7051 2.52736 5.84918 2.49564 5.99493C2.44796 6.21617 2.41235 6.43974 2.38896 6.66473C2.38384 6.72946 2.37581 6.79493 2.37142 6.86543L2.36265 7.08631C2.35579 7.24681 2.3597 7.4076 2.37434 7.5676C2.4079 7.92893 2.48643 8.28484 2.60816 8.62732C2.7331 8.98701 2.89166 9.33955 3.04656 9.69927C3.20146 10.059 3.35564 10.428 3.49299 10.8136C3.5573 11.0072 3.62671 11.2021 3.68003 11.4036C3.70781 11.5043 3.73923 11.6043 3.76552 11.7057L3.84079 12.0144C3.89412 12.2194 3.92773 12.4309 3.96864 12.641L3.99863 12.7993C4.00812 12.8518 4.01396 12.9057 4.022 12.9583L4.06729 13.2784L4.11478 13.6072C4.13378 13.7223 4.14473 13.8381 4.17177 13.9518C4.1988 14.0654 4.21563 14.1791 4.24484 14.2906C4.27408 14.4021 4.30331 14.5136 4.33619 14.6237C4.46627 15.0527 4.63549 15.4693 4.8418 15.8683C4.9419 16.0618 5.04638 16.2503 5.15672 16.4295C5.21005 16.5208 5.26779 16.6072 5.32403 16.6935L5.4088 16.8223L5.48845 16.9352C5.68579 17.2167 5.89799 17.4878 6.12411 17.7475C6.31557 17.9705 6.47996 18.1417 6.58956 18.2546C6.93001 18.6079 7.31503 18.9166 7.73524 19.1733C7.9204 19.2846 8.11191 19.3852 8.3088 19.4748C8.5183 19.5703 8.73295 19.6543 8.95179 19.7266C8.78302 19.5518 8.6376 19.3856 8.49659 19.2266L8.07864 18.7597C7.80027 18.4525 7.50142 18.1424 7.12074 17.7525C7.01918 17.6446 6.86575 17.4841 6.68746 17.2748C6.47781 17.0329 6.28098 16.7806 6.09782 16.5187L6.02476 16.4144L5.94657 16.2957C5.8947 16.2158 5.84063 16.1359 5.79239 16.0525C5.69083 15.8877 5.59585 15.7158 5.50378 15.5388C5.31742 15.1786 5.16456 14.8025 5.04712 14.4151C5.01717 14.3172 4.99305 14.2172 4.96602 14.1172C4.93898 14.0172 4.92219 13.9158 4.89953 13.8151C4.87687 13.7144 4.86591 13.6115 4.84912 13.5093L4.80163 13.1841L4.75411 12.8489C4.7461 12.7935 4.73952 12.7374 4.73002 12.682L4.69858 12.5151C4.65549 12.2935 4.61967 12.0705 4.56268 11.8525L4.48524 11.5259C4.45746 11.4172 4.42459 11.3101 4.39463 11.2036C4.3369 10.9877 4.26383 10.782 4.19517 10.5755C4.04904 10.1669 3.88902 9.77408 3.72753 9.41076C3.56606 9.04746 3.417 8.70789 3.30669 8.39205C3.20412 8.10479 3.1381 7.80611 3.11012 7.50284C3.08281 7.04884 3.1187 6.59332 3.2168 6.1489C3.24269 6.02743 3.27487 5.90738 3.31324 5.78918L3.35635 5.67118C3.35635 5.67118 3.35635 5.66039 3.36805 5.64098L3.40459 5.55681C3.41992 5.51941 3.44404 5.47839 3.46887 5.42659C3.49991 5.37214 3.53381 5.31929 3.57043 5.26831C3.58943 5.23881 3.61429 5.21507 3.63692 5.18557C3.65958 5.15608 3.68807 5.13234 3.71585 5.10501C3.77579 5.05329 3.84236 5.00952 3.91386 4.97479C3.99908 4.93777 4.08949 4.91352 4.18201 4.90284C4.29722 4.89157 4.41343 4.89546 4.52761 4.91436C4.66685 4.93619 4.8038 4.97039 4.93678 5.0165C5.08678 5.07028 5.2332 5.13324 5.37518 5.20501C5.69795 5.36893 6.00702 5.55777 6.29949 5.76974C6.61877 5.98557 6.9359 6.23521 7.25372 6.50141C7.57157 6.7676 7.88504 7.05969 8.21748 7.35608C8.55532 7.66563 8.91259 7.95397 9.28717 8.21941C9.67091 8.48411 10.0792 8.71245 10.5066 8.90141L10.8216 9.03667C10.9268 9.07839 11.0327 9.1158 11.138 9.15465C11.3476 9.23667 11.5588 9.29853 11.7663 9.36327L12.0586 9.45608L12.1959 9.49924L12.3297 9.5496L12.4619 9.59997L12.589 9.65681C12.6314 9.67622 12.6738 9.69349 12.7155 9.71436L12.8367 9.77696C12.9186 9.81651 12.9953 9.86256 13.0713 9.90715C13.1473 9.95177 13.2174 9.99997 13.2905 10.0475C13.3635 10.0949 13.43 10.146 13.498 10.1949C13.5323 10.2187 13.5652 10.2446 13.5966 10.2712L13.6785 10.3381C13.7983 10.4374 13.9057 10.5352 14 10.6259C14.1482 10.772 14.2876 10.9267 14.4172 11.0892C14.7482 11.5014 14.9834 11.8482 15.2158 12.1813C15.332 12.3489 15.4445 12.5144 15.5592 12.6899C15.6739 12.8654 15.7959 13.0561 15.907 13.2705Z" fill="#202020"></path><path d="M15.9358 23.0094C16.3328 23.0094 16.6547 22.7684 16.6547 22.4712C16.6547 22.174 16.3328 21.9331 15.9358 21.9331C15.5387 21.9331 15.2168 22.174 15.2168 22.4712C15.2168 22.7684 15.5387 23.0094 15.9358 23.0094Z" fill="#D8D8D8"></path><path d="M15.2401 23.6216C15.3749 23.6216 15.4842 23.514 15.4842 23.3813C15.4842 23.2486 15.3749 23.141 15.2401 23.141C15.1054 23.141 14.9961 23.2486 14.9961 23.3813C14.9961 23.514 15.1054 23.6216 15.2401 23.6216Z" fill="#D8D8D8"></path><path d="M15.9637 23.7115C16.0601 23.7115 16.1383 23.6345 16.1383 23.5396C16.1383 23.4446 16.0601 23.3676 15.9637 23.3676C15.8672 23.3676 15.7891 23.4446 15.7891 23.5396C15.7891 23.6345 15.8672 23.7115 15.9637 23.7115Z" fill="#D8D8D8"></path><path d="M29.659 23.141C30.036 23.141 30.3416 22.9123 30.3416 22.6302C30.3416 22.3481 30.036 22.1194 29.659 22.1194C29.2822 22.1194 28.9766 22.3481 28.9766 22.6302C28.9766 22.9123 29.2822 23.141 29.659 23.141Z" fill="#D8D8D8"></path><path d="M28.9992 23.7216C29.1273 23.7216 29.2308 23.6194 29.2308 23.4935C29.2308 23.3676 29.1273 23.2654 28.9992 23.2654C28.8713 23.2654 28.7676 23.3676 28.7676 23.4935C28.7676 23.6194 28.8713 23.7216 28.9992 23.7216Z" fill="#D8D8D8"></path><path d="M29.6835 23.8079C29.7751 23.8079 29.8494 23.7348 29.8494 23.6446C29.8494 23.5544 29.7751 23.4813 29.6835 23.4813C29.592 23.4813 29.5176 23.5544 29.5176 23.6446C29.5176 23.7348 29.592 23.8079 29.6835 23.8079Z" fill="#D8D8D8"></path><path d="M23.1265 27.4158C23.3113 27.2554 23.2098 26.9878 22.9204 26.9906C22.6136 26.9942 22.2628 27.1388 22.0897 27.3403C21.812 27.6597 22.5851 27.887 23.1265 27.4158Z" fill="#EAEAEA"></path></g></g></g><defs><clipPath id="clip0_1207_24"><rect width="143" height="40" rx="3" fill="white"></rect></clipPath><clipPath id="clip1_1207_24"><rect width="143" height="40" fill="white"></rect></clipPath><clipPath id="clip2_1207_24"><rect width="142.188" height="40" fill="white" transform="translate(0.40625)"></rect></clipPath></defs></svg> 